<?xml version="1.0" standalone="no"?>
<!DOCTYPE svg PUBLIC "-//W3C//DTD SVG 20010904//EN"
 "http://www.w3.org/TR/2001/REC-SVG-20010904/DTD/svg10.dtd">
<svg version="1.0" xmlns="http://www.w3.org/2000/svg"
 width="552.000000pt" height="729.000000pt" viewBox="0 0 552.000000 729.000000"
 preserveAspectRatio="xMidYMid meet">
<metadata>
Created by potrace 1.11, written by Peter Selinger 2001-2013
</metadata>
<g transform="translate(0.000000,729.000000) scale(0.100000,-0.100000)"
fill="#000000" stroke="none">
<path d="M1717 7257 c-17 -13 -21 -25 -67 -227 -37 -164 -80 -322 -90 -335 -4
-5 -18 -44 -30 -84 -12 -41 -37 -105 -56 -142 -19 -36 -34 -71 -34 -76 0 -6
-6 -16 -14 -22 -15 -12 -77 8 -103 35 -13 13 -35 19 -56 15 -4 -1 -6 16 -5 38
2 21 6 37 11 34 4 -2 7 2 7 9 1 7 16 45 34 83 19 39 32 73 30 77 -2 3 -24 -5
-49 -19 -25 -13 -43 -29 -40 -33 3 -5 0 -12 -6 -16 -8 -4 -9 -3 -5 4 11 18
-10 14 -25 -4 -7 -8 -25 -22 -40 -30 -26 -13 -30 -12 -51 9 -13 12 -57 67 -98
122 -70 93 -75 97 -78 70 -1 -17 7 -82 18 -145 12 -63 28 -155 37 -205 11 -68
21 -96 39 -116 13 -14 24 -28 24 -32 0 -13 102 -142 111 -140 5 2 8 -3 6 -10
-1 -6 5 -11 13 -9 8 2 12 0 8 -4 -4 -4 -3 -13 3 -21 9 -9 8 -17 -1 -28 -6 -8
-9 -19 -5 -26 4 -6 3 -14 -3 -18 -14 -8 12 -82 35 -99 10 -7 27 -20 38 -30 11
-9 25 -15 30 -13 6 1 7 0 3 -4 -3 -4 0 -26 9 -48 8 -23 16 -47 17 -52 1 -6 19
-47 39 -90 41 -87 56 -118 82 -180 9 -22 24 -55 33 -74 12 -25 14 -35 5 -38
-6 -2 -33 -20 -59 -40 -44 -34 -46 -38 -42 -77 5 -39 -7 -66 -29 -66 -4 0 -22
-14 -40 -30 -18 -17 -39 -30 -47 -30 -9 0 -16 -5 -16 -11 0 -5 6 -7 13 -3 6 4
8 3 4 -2 -4 -4 -16 -9 -27 -9 -10 0 -45 -26 -78 -57 -33 -32 -64 -58 -69 -58
-15 0 -194 -186 -186 -194 4 -4 2 -6 -5 -4 -8 2 -19 -6 -25 -17 -7 -10 -30
-39 -52 -63 -22 -25 -39 -48 -37 -53 1 -5 -3 -8 -9 -7 -6 2 -16 -6 -22 -17 -7
-10 -24 -33 -39 -50 -16 -16 -28 -36 -28 -42 0 -7 -4 -13 -8 -13 -5 0 -15 -12
-23 -27 -8 -16 -22 -37 -32 -47 -9 -11 -17 -26 -17 -33 0 -7 -4 -13 -10 -13
-5 0 -10 -5 -10 -11 0 -5 5 -7 12 -3 7 4 8 3 4 -4 -4 -6 -13 -9 -21 -5 -10 3
-15 -2 -15 -16 0 -12 -4 -21 -10 -21 -5 0 -10 -9 -10 -20 0 -11 -4 -20 -8 -20
-5 0 -15 -12 -23 -27 -8 -16 -18 -31 -24 -35 -6 -5 -2 -8 8 -8 9 0 17 -4 17
-9 0 -5 -9 -7 -20 -4 -12 3 -20 2 -19 -3 3 -18 -1 -33 -14 -46 -7 -7 -23 -47
-37 -88 -13 -41 -27 -77 -31 -80 -3 -3 -12 -30 -19 -60 -7 -30 -17 -63 -22
-73 -5 -10 -11 -26 -13 -35 -3 -9 -13 -51 -24 -92 -12 -41 -21 -94 -21 -117 0
-23 -5 -45 -10 -48 -6 -4 -10 -12 -9 -18 1 -7 1 -35 0 -64 -1 -40 -6 -57 -24
-74 -17 -17 -18 -21 -4 -16 9 4 17 3 17 -1 0 -4 -37 -8 -82 -7 l-83 0 -3 -287
-2 -288 74 0 c89 0 106 -12 106 -73 0 -22 4 -54 9 -71 5 -17 15 -60 21 -95 13
-75 74 -263 82 -255 3 3 6 -1 5 -8 -2 -24 15 -88 23 -88 5 0 13 -22 19 -49 6
-28 20 -65 31 -83 11 -18 20 -41 20 -50 0 -10 5 -18 10 -18 6 0 10 -6 10 -13
0 -8 9 -22 20 -32 11 -10 20 -24 20 -31 0 -7 11 -26 25 -42 14 -17 25 -32 25
-35 0 -4 -21 -4 -47 -1 -53 6 -231 -25 -285 -51 -117 -54 -199 -130 -253 -236
-15 -29 -20 -186 -14 -444 1 -38 2 -124 3 -190 1 -138 7 -155 83 -229 63 -62
88 -75 208 -103 91 -22 132 -25 470 -33 204 -4 408 -13 455 -19 91 -13 275
-65 300 -86 8 -7 35 -23 60 -35 25 -12 52 -28 60 -35 8 -7 38 -25 67 -40 28
-14 57 -33 64 -41 6 -8 16 -14 21 -14 6 0 36 -16 68 -36 36 -22 64 -33 72 -28
7 4 9 3 5 -2 -4 -4 11 -18 35 -31 89 -46 153 -75 165 -76 7 0 10 -4 7 -8 -2
-5 14 -13 36 -19 23 -6 74 -24 113 -40 122 -48 248 -63 480 -57 155 4 223 10
292 26 118 28 257 75 248 85 -4 4 0 4 9 1 9 -4 30 0 45 9 15 9 48 25 73 36 25
11 52 24 60 30 8 6 41 21 73 35 37 16 56 29 51 37 -4 6 -3 8 3 5 18 -11 198
94 185 108 -4 5 -2 5 4 2 6 -4 26 5 44 18 19 14 38 25 43 25 5 0 29 14 54 30
55 37 134 68 233 89 41 9 80 19 85 22 6 3 179 7 385 8 206 1 402 6 435 11 92
15 207 49 237 70 15 11 31 20 36 20 16 0 81 76 98 115 15 34 18 85 22 364 4
286 2 331 -13 390 -23 86 -35 107 -87 160 -98 99 -224 148 -405 158 -51 3 -93
7 -93 9 0 2 13 25 29 51 16 27 32 59 36 73 4 14 13 32 20 40 8 8 24 42 36 75
12 33 28 69 34 80 7 11 23 54 35 95 13 41 26 80 30 85 13 16 77 293 87 370 l8
70 95 5 95 5 3 283 2 282 -100 0 -100 0 0 83 c-1 56 -5 88 -15 101 -10 13 -15
15 -15 6 0 -7 -3 -10 -6 -7 -4 4 -1 13 5 21 9 10 9 20 2 33 -9 15 -35 107 -56
195 -2 9 -9 26 -15 37 -6 12 -8 21 -5 21 3 0 1 8 -4 18 -5 9 -11 33 -15 52 -3
19 -10 36 -15 38 -6 2 -11 12 -11 23 0 10 -4 19 -9 19 -5 0 -12 18 -16 40 -4
22 -13 47 -21 54 -8 8 -14 19 -14 25 0 17 -43 101 -52 101 -4 0 -8 7 -8 16 0
8 -7 22 -15 30 -8 9 -18 27 -22 42 -3 15 -14 34 -25 43 -10 9 -18 23 -18 30 0
8 -9 21 -20 29 -11 8 -20 19 -20 25 0 5 -12 24 -28 40 -15 17 -33 42 -41 58
-8 15 -18 27 -23 27 -4 0 -8 5 -8 11 0 21 -324 369 -344 369 -6 1 -38 28 -71
60 -33 33 -66 60 -73 60 -7 0 -10 -4 -7 -10 10 -16 0 -12 -25 10 -13 11 -19
20 -14 20 6 0 15 -5 22 -12 7 -7 12 -8 12 -2 0 6 -12 17 -27 25 -16 8 -37 22
-47 32 -11 9 -26 17 -33 17 -7 0 -13 5 -13 11 0 6 -7 9 -14 6 -12 -5 -14 3 -9
43 l6 48 -51 36 c-30 22 -52 46 -54 61 -3 13 -2 22 2 20 4 -2 17 26 30 63 13
37 28 74 35 82 6 8 17 35 24 60 7 25 18 54 25 65 7 11 23 48 35 83 16 47 35
77 76 119 51 53 55 60 55 106 0 29 -4 46 -10 42 -17 -11 8 43 37 80 16 19 27
37 26 40 -1 2 12 19 28 36 17 18 37 46 46 63 8 17 24 40 33 51 13 14 23 55 35
140 9 66 20 140 25 165 5 25 12 71 16 103 5 47 4 57 -9 57 -8 0 -22 -15 -30
-33 -9 -18 -25 -41 -37 -52 -11 -10 -20 -22 -20 -26 0 -12 -57 -94 -75 -109
-13 -11 -23 -9 -58 10 -23 13 -51 30 -62 40 -30 25 -97 62 -103 56 -2 -3 0
-18 6 -33 6 -15 16 -53 22 -83 6 -30 17 -68 24 -85 11 -27 10 -32 -13 -55 -14
-14 -43 -35 -63 -47 l-38 -22 -14 22 c-8 12 -17 32 -21 45 -3 12 -10 22 -15
22 -5 0 -7 7 -4 15 3 8 -3 31 -15 50 -12 20 -21 41 -21 46 0 6 -14 45 -31 87
-17 43 -37 101 -45 131 -8 30 -19 60 -24 65 -4 6 -20 65 -35 131 -14 66 -29
127 -32 135 -4 8 -14 49 -22 90 -14 66 -19 75 -39 78 -18 3 -33 -7 -60 -40
-21 -24 -46 -52 -57 -64 -55 -58 -67 -73 -69 -90 -2 -11 -8 -19 -14 -19 -6 0
-67 -56 -134 -125 -68 -68 -150 -148 -183 -178 -33 -29 -69 -62 -81 -73 -12
-11 -34 -29 -50 -38 -28 -18 -30 -17 -56 1 -16 11 -28 25 -28 32 0 7 -13 25
-30 41 -16 16 -30 32 -30 36 0 4 12 21 26 38 14 17 22 36 18 42 -4 7 -3 9 4 5
6 -3 19 5 29 19 10 15 28 39 41 55 24 31 21 56 -5 45 -39 -14 -208 -34 -219
-24 -6 5 -19 35 -29 67 -19 59 -63 162 -70 162 -6 0 -40 -77 -55 -125 -7 -22
-22 -57 -33 -77 -18 -35 -21 -38 -55 -33 -134 20 -159 24 -179 30 -30 9 -31
-15 -3 -40 11 -10 20 -22 20 -28 0 -5 12 -25 28 -43 15 -19 39 -49 53 -67 l27
-32 -57 -64 -57 -63 -30 18 c-37 23 -105 78 -151 122 -19 18 -39 29 -45 26 -6
-4 -8 -3 -5 3 3 5 -14 27 -38 49 -25 21 -45 45 -45 52 0 6 -4 12 -10 12 -5 0
-33 25 -62 56 -122 130 -172 179 -179 177 -5 -2 -6 3 -3 10 2 7 -9 27 -25 45
-17 17 -36 40 -43 49 -26 35 -43 44 -61 30z m1930 -224 c-8 -15 -20 -53 -27
-83 -7 -30 -23 -76 -36 -102 -13 -26 -24 -53 -24 -59 0 -15 -81 -174 -115
-226 -27 -42 -73 -106 -92 -127 -35 -40 -63 -92 -63 -120 0 -39 -41 -141 -72
-178 -35 -43 -128 -88 -179 -87 -53 1 -103 27 -107 57 l-3 22 43 -20 c50 -22
59 -13 28 30 -26 36 -15 39 22 5 15 -14 36 -25 48 -25 17 0 19 4 14 28 -5 22
-4 25 7 15 24 -23 32 -14 25 30 -3 23 -3 37 1 31 10 -15 50 -27 63 -19 12 7
-13 61 -32 68 -7 3 8 6 35 6 45 1 47 2 41 26 -4 15 -2 25 5 25 16 0 13 21 -6
42 -15 17 -15 18 10 18 37 0 35 28 -3 44 -38 15 -29 26 22 26 43 0 52 20 16
38 l-23 11 25 0 c14 1 36 8 48 17 18 12 21 19 11 30 -11 14 -9 15 39 30 14 4
16 34 2 34 -26 0 -6 19 28 25 50 9 64 22 51 46 -7 14 -6 19 4 19 7 0 22 6 32
14 15 11 17 17 7 28 -10 12 -8 19 9 34 13 12 18 26 15 40 -5 17 -1 23 19 28
26 7 33 30 14 42 -6 3 2 14 20 25 37 22 39 33 9 46 -22 10 -22 10 7 24 24 11
30 21 32 47 1 19 10 43 20 54 l18 20 3 -25 c2 -14 -3 -38 -11 -54z m-1810 10
c9 -80 17 -105 36 -118 12 -8 22 -25 22 -36 0 -24 14 -34 60 -45 30 -7 30 -7
5 -13 -43 -12 -37 -38 12 -49 41 -9 42 -9 16 -17 -58 -16 -17 -55 58 -55 19 0
34 -4 34 -10 0 -5 -20 -10 -45 -10 -32 0 -45 -4 -45 -14 0 -18 22 -26 75 -26
50 0 68 -15 30 -24 -47 -12 -25 -46 30 -46 31 0 41 -16 14 -23 -30 -8 -15 -25
34 -38 42 -12 42 -12 15 -21 -36 -12 -26 -34 19 -43 33 -6 34 -7 19 -24 -18
-20 -21 -41 -5 -41 7 0 8 -11 4 -29 -6 -28 -4 -30 27 -33 l33 -4 -28 -12 c-42
-18 -28 -38 23 -34 l42 3 -26 -31 c-14 -18 -26 -35 -26 -40 0 -20 23 -21 44
-1 34 32 51 27 29 -9 -13 -23 -15 -32 -5 -42 9 -9 20 -5 47 22 23 22 35 29 35
19 0 -9 -11 -26 -25 -39 -34 -32 -31 -44 9 -37 28 4 34 3 29 -9 -7 -19 26 -18
55 2 25 18 55 12 47 -9 -10 -26 -67 -50 -119 -51 -80 -1 -152 43 -193 120 -31
55 -55 122 -68 187 -3 16 -20 43 -38 61 -18 18 -40 43 -49 57 -10 13 -32 44
-50 69 -56 77 -128 216 -128 245 0 7 -5 15 -11 17 -6 2 -19 37 -29 78 -10 41
-25 95 -34 120 -9 25 -16 56 -16 70 0 23 1 23 17 8 9 -9 18 -29 20 -45z m1883
0 c0 -12 -4 -25 -10 -28 -15 -9 -12 -42 5 -49 22 -8 18 -36 -5 -36 -26 0 -26
-30 -1 -37 11 -3 21 -13 24 -24 4 -15 0 -19 -24 -19 -37 0 -37 -15 2 -51 l31
-29 -26 0 c-29 0 -33 -11 -11 -34 8 -8 15 -19 15 -25 0 -6 -7 -11 -15 -11 -36
0 9 -57 66 -82 16 -7 29 -16 29 -20 0 -14 -37 -8 -50 7 -7 8 -21 15 -31 15
-35 0 -19 -30 36 -66 30 -20 55 -39 55 -41 0 -2 -19 -3 -41 -1 -27 2 -44 -1
-46 -9 -3 -7 2 -13 11 -13 21 0 30 -18 16 -35 -17 -21 -1 -38 62 -68 l51 -24
-52 5 c-28 2 -51 1 -51 -4 0 -15 14 -30 33 -37 26 -10 21 -27 -8 -27 -29 0
-45 -28 -24 -41 11 -6 9 -12 -9 -29 -28 -27 -20 -40 24 -40 19 0 34 -4 34 -10
0 -5 -21 -10 -47 -10 l-48 0 27 -27 26 -26 -20 -17 c-24 -19 -17 -40 13 -40
23 0 25 -15 4 -24 -22 -8 -18 -37 5 -43 15 -4 18 -9 10 -18 -9 -10 -4 -17 17
-27 17 -8 28 -21 28 -33 0 -16 9 -21 40 -26 36 -6 37 -6 10 -9 -67 -6 -81 -5
-105 7 -82 39 -106 102 -95 243 12 135 10 185 -6 275 -26 148 -15 457 23 633
11 52 28 55 28 5z m-1945 -95 c8 -46 20 -146 26 -223 10 -119 9 -158 -5 -261
-9 -67 -21 -136 -26 -154 -6 -23 -5 -49 7 -93 17 -70 14 -192 -8 -242 -35 -82
-119 -122 -206 -99 -37 10 -27 27 11 20 35 -7 66 0 66 15 0 4 -16 16 -35 25
-19 9 -35 20 -35 25 0 6 8 5 19 -1 39 -20 125 -6 91 15 -17 10 -11 25 10 25
28 0 25 28 -5 42 -37 16 -31 30 10 22 22 -4 35 -2 35 4 0 24 -13 42 -31 42
-28 0 -23 13 11 34 37 22 31 36 -18 37 -36 1 -36 2 -7 8 43 9 45 38 3 49 l-33
8 28 7 c53 14 28 46 -36 48 -18 0 -25 3 -17 6 25 10 70 44 70 54 0 5 -16 9
-36 9 l-37 0 24 18 c13 10 32 22 42 25 30 11 17 42 -18 41 -17 -1 -21 1 -9 3
24 5 51 30 56 53 3 13 -1 15 -34 19 -6 0 7 15 30 33 63 49 55 93 -9 47 -16
-11 -37 -19 -46 -17 -15 3 -15 4 1 21 10 9 27 17 39 17 14 0 28 11 40 31 21
38 22 49 2 49 -8 0 -15 4 -15 9 0 5 7 16 15 25 26 25 18 38 -17 30 -31 -6 -32
-6 -18 12 8 10 23 26 33 36 25 26 22 41 -8 34 -20 -5 -23 -3 -18 11 4 10 16
26 28 35 17 15 18 19 5 27 -8 5 -18 7 -22 5 -4 -3 -8 4 -8 15 0 12 5 21 11 21
7 0 9 17 4 53 -6 49 -6 51 9 30 9 -12 23 -59 31 -105z m1585 -148 c-12 -16
-26 -30 -31 -30 -5 0 -9 -6 -9 -13 0 -7 -33 -47 -72 -89 -40 -43 -78 -83 -84
-90 -6 -7 -21 -21 -33 -30 -17 -15 -21 -29 -21 -82 0 -96 -9 -123 -54 -169
-39 -40 -98 -67 -144 -67 -30 0 -33 12 -7 27 14 7 35 19 48 26 78 42 107 101
107 217 0 49 4 70 13 70 6 0 24 13 40 29 15 16 41 35 57 43 17 7 30 17 30 23
0 5 17 23 38 40 20 16 57 50 82 77 51 53 72 63 40 18z m-1208 -48 c7 -9 30
-28 50 -42 21 -14 38 -28 38 -32 0 -4 21 -22 48 -40 26 -18 56 -40 66 -50 11
-10 26 -18 33 -18 13 0 16 -18 13 -83 -2 -50 29 -147 55 -170 11 -10 41 -30
67 -46 51 -29 53 -41 7 -41 -41 0 -79 20 -128 67 l-44 42 -6 101 c-5 83 -9
103 -24 111 -10 6 -32 27 -50 46 -18 20 -50 54 -72 77 -67 68 -89 96 -77 96 6
0 17 -8 24 -18z m1477 -382 c6 -30 16 -59 21 -65 7 -8 5 -25 -5 -50 -32 -75
-28 -294 4 -287 7 1 10 -1 7 -6 -3 -5 1 -21 9 -36 14 -26 14 -27 -8 -21 -12 4
-39 19 -61 33 -21 15 -49 33 -62 40 -13 7 -28 22 -34 32 -6 11 -27 35 -47 55
-37 36 -59 39 -93 10 -25 -20 -80 -35 -134 -35 l-50 0 45 48 c24 26 52 56 62
68 19 23 71 190 62 203 -2 5 3 15 13 22 16 13 16 13 2 -6 -14 -19 -14 -19 3
-6 9 7 17 18 17 24 0 5 12 20 26 33 15 14 22 29 18 37 -4 6 -4 9 1 5 13 -12
57 53 115 170 l55 111 11 -163 c7 -89 17 -187 23 -216z m-1749 320 c3 -3 12
-20 19 -37 7 -18 17 -30 22 -27 5 3 6 -1 3 -9 -3 -9 8 -28 24 -45 17 -17 27
-33 24 -36 -3 -4 6 -19 19 -34 48 -53 119 -151 119 -164 0 -10 3 -9 11 2 8 12
9 9 5 -11 -10 -45 36 -163 85 -218 24 -27 49 -48 55 -46 6 2 11 -3 11 -11 0
-30 -138 -11 -181 25 -13 11 -22 12 -43 2 -22 -10 -25 -10 -17 1 5 8 0 4 -11
-9 -12 -13 -26 -23 -33 -23 -6 0 -18 -13 -26 -28 -8 -15 -26 -34 -41 -40 -16
-7 -23 -17 -19 -24 4 -7 3 -8 -4 -4 -7 4 -27 -4 -45 -18 -19 -15 -39 -26 -46
-26 -7 0 -9 -4 -6 -10 3 -5 0 -7 -9 -4 -16 6 -9 27 22 66 9 11 12 28 7 50 -5
24 -4 29 4 18 16 -23 14 120 -3 207 -7 40 -10 71 -6 68 11 -7 30 183 30 313 1
92 3 113 12 97 6 -11 14 -22 18 -25z m1991 -65 c12 -44 54 -145 101 -243 l31
-62 -31 -58 c-17 -31 -33 -73 -37 -94 -8 -44 10 -103 42 -139 13 -14 23 -32
23 -41 0 -47 -105 46 -122 108 -13 48 -3 98 33 160 34 61 35 73 9 124 -11 21
-29 74 -40 117 -11 43 -25 85 -30 95 -5 9 -12 40 -15 70 -6 51 -5 52 9 28 9
-14 21 -43 27 -65z m-2272 -15 c-4 -30 -25 -106 -45 -168 l-38 -114 32 -62
c41 -81 42 -132 3 -206 -28 -53 -48 -70 -101 -85 -24 -6 -23 -5 8 25 18 17 39
41 46 53 35 56 26 166 -19 219 -14 16 -25 38 -25 49 0 10 18 54 40 96 22 43
40 86 40 95 0 17 61 160 66 155 1 -1 -2 -27 -7 -57z m1036 -60 c10 -22 22 -40
27 -40 5 0 7 -4 4 -9 -3 -5 0 -26 8 -48 l13 -38 -36 3 c-26 3 -44 -3 -65 -19
-24 -18 -27 -28 -24 -60 4 -44 3 -45 -39 -24 -22 11 -38 32 -57 76 -48 111
-33 147 73 174 39 11 67 23 64 28 -3 6 -2 7 4 4 5 -3 18 -24 28 -47z m275 28
c0 -4 17 -10 38 -14 62 -11 72 -20 72 -67 0 -54 -20 -111 -52 -147 -14 -16
-24 -32 -22 -35 2 -3 1 -3 -3 0 -3 3 -16 -1 -28 -9 -20 -13 -21 -13 -17 15 6
43 -37 95 -82 101 -20 2 -38 -1 -40 -7 -2 -5 -5 0 -5 13 -1 13 3 21 7 18 5 -3
14 25 21 61 7 37 14 70 16 73 6 9 95 7 95 -2z m-206 -248 c6 -26 3 -56 -14
-119 -47 -174 -181 -271 -371 -271 -35 0 -98 10 -139 21 -122 34 -117 34 -144
2 -33 -40 -135 -108 -188 -127 -24 -8 -61 -22 -83 -30 -48 -18 -207 -21 -256
-5 -19 6 -53 20 -76 30 -24 10 -45 19 -48 19 -10 0 -101 73 -122 98 -40 49
-26 102 28 102 37 0 51 -20 43 -67 -6 -43 3 -55 67 -91 114 -63 122 -65 231
-64 57 1 112 3 123 4 28 5 92 37 106 54 6 8 17 14 24 14 13 0 71 46 127 103
39 39 70 46 97 24 33 -28 106 -42 216 -42 106 0 112 1 170 33 33 19 70 44 83
57 30 33 68 106 76 148 6 30 3 38 -18 54 -28 22 -33 39 -22 71 6 19 14 23 44
20 33 -3 38 -7 46 -38z m140 24 c12 -30 6 -53 -19 -78 -30 -30 -32 -64 -6
-115 67 -130 269 -219 412 -181 96 25 120 34 130 47 13 15 69 18 69 3 0 -11
80 -91 117 -116 32 -21 64 -39 133 -74 28 -14 249 -14 286 0 16 6 59 29 96 51
l67 41 -2 49 c-2 53 9 69 51 69 15 0 26 -9 33 -27 13 -35 -10 -84 -55 -116
-17 -12 -37 -27 -44 -34 -7 -7 -30 -20 -50 -29 -20 -9 -49 -22 -64 -30 -38
-20 -171 -34 -243 -25 -33 4 -84 20 -114 34 -30 15 -58 27 -62 27 -16 0 -102
64 -140 103 l-38 40 -43 -12 c-24 -8 -56 -18 -72 -24 -55 -20 -223 -14 -302
12 -131 42 -220 162 -228 309 -3 68 10 92 50 92 20 0 34 -6 38 -16z m-1405
-99 c26 -30 31 -44 31 -85 0 -26 3 -56 7 -66 5 -13 3 -15 -7 -9 -8 5 -11 3 -8
-6 5 -16 -21 -49 -39 -49 -7 0 -13 -4 -13 -10 0 -22 -26 -8 -49 25 -14 21 -36
38 -55 43 -30 8 -31 10 -37 78 -3 43 -1 74 5 81 6 7 36 17 66 22 30 5 58 9 61
10 4 0 21 -15 38 -34z m2743 -78 c-4 -66 -5 -69 -33 -79 -16 -5 -26 -14 -23
-19 3 -5 -2 -6 -10 -3 -15 6 -40 -28 -29 -39 3 -4 -1 -9 -10 -13 -20 -7 -77
31 -77 52 0 8 -3 13 -7 11 -5 -3 -8 9 -8 26 0 18 -4 43 -9 56 -6 16 -5 21 3
17 6 -4 11 0 11 10 0 10 8 26 17 36 14 16 29 19 98 16 l80 -3 -3 -68z m-1417
-93 c26 -41 46 -62 114 -116 12 -10 26 -18 31 -18 5 0 24 -9 42 -20 18 -11 43
-20 55 -20 12 0 25 -4 28 -10 10 -17 146 -11 245 10 51 11 99 20 105 20 7 0
32 -18 56 -39 40 -35 74 -57 135 -89 89 -46 227 -67 334 -52 167 25 163 25
158 -1 -5 -23 -39 -109 -98 -249 -32 -75 -47 -82 -111 -51 -24 12 -49 21 -56
21 -7 0 -13 4 -13 8 0 5 -19 15 -42 22 -24 7 -62 21 -85 31 -23 10 -76 28
-118 39 -42 11 -86 27 -98 34 -12 7 -74 21 -137 30 -63 10 -135 21 -160 26
-125 24 -177 30 -310 35 -156 5 -421 -7 -510 -25 -95 -19 -163 -30 -225 -36
-63 -6 -115 -21 -115 -34 0 -4 -26 -13 -57 -20 -32 -7 -73 -21 -91 -31 -18
-11 -40 -19 -48 -19 -8 0 -22 -4 -32 -9 -114 -58 -196 -92 -214 -89 -16 2 -24
12 -29 36 -4 18 -13 41 -22 50 -8 9 -20 35 -27 57 -7 22 -22 56 -33 75 -27 48
-58 140 -47 140 5 0 19 -4 32 -9 84 -32 291 -44 367 -20 53 17 131 51 131 58
0 3 12 12 28 18 15 7 47 31 72 53 35 31 50 39 70 35 211 -48 331 -43 452 19
62 33 118 84 153 144 14 23 29 42 33 42 5 0 21 -20 37 -46z m230 -449 c238
-21 285 -27 285 -35 0 -4 26 -12 58 -19 108 -23 152 -35 152 -42 0 -4 15 -9
33 -12 58 -9 104 -24 163 -52 33 -16 70 -33 84 -39 14 -6 36 -18 50 -26 14 -9
41 -22 60 -30 50 -19 159 -93 160 -108 0 -23 -30 -24 -67 -2 -139 83 -269 145
-379 181 -38 12 -85 29 -104 37 -19 9 -55 19 -80 23 -25 4 -76 14 -115 23
-150 35 -235 44 -466 52 -259 10 -468 -8 -679 -58 -140 -32 -164 -39 -185 -48
-11 -5 -54 -19 -95 -31 -41 -13 -101 -36 -133 -51 -31 -15 -63 -28 -70 -29 -6
0 -25 -9 -42 -19 -16 -11 -46 -28 -65 -38 -19 -10 -53 -29 -74 -41 -31 -18
-41 -20 -47 -9 -5 7 -9 18 -9 23 1 10 93 70 145 93 31 14 45 21 80 39 11 6 31
15 45 20 14 5 45 19 70 30 68 32 163 63 193 63 14 0 28 4 31 9 6 9 53 22 154
42 34 7 62 16 62 19 0 7 153 26 315 40 146 12 300 11 470 -5z m105 -109 c69
-9 150 -24 180 -31 117 -30 180 -50 180 -58 0 -5 -8 -6 -17 -3 -99 31 -286 69
-408 82 -259 28 -685 8 -842 -40 -27 -8 -79 -22 -118 -30 -128 -30 -122 -29
-103 -16 40 25 242 73 378 90 52 7 115 16 140 20 79 14 474 5 610 -14z m962
-344 c2 -5 30 -27 64 -50 33 -23 68 -50 79 -62 10 -11 24 -20 31 -20 7 0 21
-10 31 -23 10 -13 38 -37 63 -54 48 -33 230 -208 230 -221 0 -4 25 -34 55 -67
51 -56 93 -111 155 -205 14 -21 42 -64 64 -96 45 -68 177 -339 196 -404 8 -25
18 -50 22 -57 24 -32 108 -405 106 -473 0 -25 -4 -15 -14 35 -49 257 -121 520
-153 559 -5 6 -19 36 -31 66 -12 30 -27 62 -34 70 -7 8 -20 34 -29 56 -16 43
-30 65 -124 204 -69 100 -139 195 -168 225 -56 60 -75 84 -75 94 0 6 -4 11 -8
11 -5 0 -40 31 -78 68 -87 87 -266 238 -329 278 -16 10 -39 27 -49 36 -11 10
-26 18 -33 18 -8 0 -11 5 -8 10 8 12 32 13 37 2z m-2637 -22 c-16 -11 -44 -30
-61 -42 -17 -13 -56 -41 -87 -62 -32 -21 -57 -43 -57 -47 0 -5 -17 -19 -37
-32 -37 -23 -207 -188 -268 -260 -16 -19 -46 -53 -65 -75 -19 -22 -43 -51 -52
-64 -10 -12 -31 -41 -49 -63 -112 -144 -249 -421 -309 -625 -15 -52 -33 -108
-39 -125 -6 -16 -20 -84 -31 -150 -12 -66 -24 -135 -27 -152 -3 -18 -10 -33
-14 -33 -5 0 -7 10 -5 23 3 12 8 45 11 72 3 28 12 75 20 105 7 30 21 89 30
129 10 41 21 82 26 90 4 9 19 56 33 105 14 48 29 93 34 100 5 6 17 31 26 56
23 60 89 194 98 201 4 3 21 32 37 65 16 33 36 66 45 73 9 7 16 18 16 23 0 6
12 24 26 42 14 17 49 61 77 97 81 102 167 199 232 259 33 30 66 61 73 68 8 7
30 25 50 40 20 15 46 36 58 47 65 58 205 155 223 155 10 0 4 -8 -14 -20z
m1660 -259 c132 -25 286 -70 357 -104 31 -15 68 -27 82 -27 15 0 26 -6 26 -13
0 -8 24 -24 53 -37 28 -14 65 -35 80 -47 16 -13 33 -23 38 -23 5 0 38 -22 72
-48 92 -71 104 -81 178 -152 37 -36 76 -72 86 -81 49 -43 152 -169 190 -233
10 -16 28 -40 39 -55 12 -14 31 -44 43 -66 12 -22 26 -47 31 -55 23 -36 95
-202 120 -280 39 -119 65 -249 51 -263 -13 -13 -16 -4 -31 83 -7 35 -16 73
-21 82 -6 10 -18 52 -29 93 -10 41 -26 84 -34 97 -8 13 -22 45 -31 72 -9 27
-25 61 -35 75 -9 14 -39 62 -65 106 -86 147 -122 193 -250 325 -164 169 -343
301 -509 374 -31 14 -56 29 -56 33 0 5 -23 14 -52 21 -28 6 -68 20 -87 30 -20
10 -70 26 -111 35 -41 9 -95 22 -120 28 -107 25 -132 28 -260 35 -143 7 -320
-6 -430 -30 -36 -8 -101 -23 -145 -32 -44 -10 -103 -28 -131 -40 -28 -13 -68
-26 -88 -29 -20 -4 -36 -11 -36 -15 0 -4 -55 -36 -123 -70 -67 -34 -153 -86
-190 -116 -37 -30 -71 -54 -75 -54 -4 0 -61 -53 -127 -118 -109 -107 -196
-207 -224 -260 -6 -11 -17 -27 -25 -34 -8 -8 -26 -37 -40 -64 -15 -27 -34 -60
-42 -74 -28 -48 -92 -195 -99 -227 -3 -18 -10 -33 -14 -33 -5 0 -16 -35 -25
-77 -10 -43 -24 -99 -32 -125 -8 -26 -14 -56 -14 -67 0 -12 -4 -21 -10 -21
-14 0 -12 57 4 115 8 28 26 92 40 143 14 51 32 102 40 115 7 12 19 40 26 62 7
22 17 45 22 51 5 7 22 38 37 70 31 65 120 204 173 272 39 51 222 238 260 267
14 11 46 35 70 52 23 18 48 37 55 43 22 18 163 99 208 119 25 11 45 25 45 30
0 6 8 11 19 11 19 0 78 21 121 44 14 7 54 21 90 30 36 9 94 26 130 37 171 51
563 61 775 20z m-190 -26 c179 -21 278 -40 384 -75 50 -17 102 -30 116 -30 15
0 25 -6 25 -14 0 -8 17 -20 37 -27 51 -16 201 -97 236 -126 16 -12 33 -23 37
-23 5 0 17 -8 27 -18 10 -11 35 -30 55 -44 36 -23 158 -128 182 -156 6 -7 38
-42 71 -77 33 -36 73 -82 88 -103 99 -133 103 -139 163 -262 15 -30 32 -62 39
-70 7 -8 15 -24 18 -35 3 -11 21 -65 40 -120 31 -85 64 -213 70 -265 2 -12
-13 -16 -63 -20 l-65 -5 0 -275 0 -275 68 -3 c72 -3 74 -6 58 -58 -5 -16 -19
-72 -31 -124 -12 -52 -25 -99 -30 -105 -4 -5 -14 -30 -21 -54 -7 -23 -18 -45
-24 -47 -6 -3 -84 -3 -174 -2 l-163 3 52 54 51 53 -23 25 c-13 14 -41 39 -63
55 -39 28 -39 29 -47 8 -7 -19 -14 -21 -75 -18 l-68 3 -5 45 -5 45 -125 5
-125 5 4 25 c2 20 -4 15 -31 -24 -50 -72 -75 -72 -47 1 32 86 29 510 -6 627
-26 87 3 156 43 105 19 -23 42 -19 42 7 0 8 -7 14 -17 12 -25 -5 -113 146
-113 193 0 23 8 24 34 4 14 -11 23 -12 32 -4 17 14 50 -4 59 -32 4 -12 7 -48
7 -80 0 -32 4 -57 9 -54 4 3 11 -7 15 -22 4 -15 13 -37 21 -48 12 -18 13 -17
7 15 -3 19 -12 54 -20 78 -21 65 -19 85 9 79 12 -4 29 -2 36 3 34 21 61 -113
61 -306 0 -68 4 -114 10 -114 21 0 -9 380 -36 463 -9 27 -13 51 -10 54 3 3 19
0 35 -7 46 -18 54 -6 48 65 -6 60 -5 62 16 58 12 -2 29 1 37 6 13 9 11 18 -13
64 -15 30 -27 57 -27 60 0 4 14 7 30 7 26 0 30 4 30 28 -1 27 -43 77 -85 100
-16 9 -8 11 47 12 77 0 83 7 57 68 -17 39 -17 45 -4 66 14 21 14 25 -4 47 -19
24 -19 24 0 45 27 29 12 68 -33 83 -18 6 -117 14 -219 18 -143 5 -186 9 -182
19 8 22 -15 25 -49 6 -22 -13 -32 -25 -30 -38 1 -11 -9 -35 -23 -54 -32 -43
-32 -60 0 -60 14 0 25 -2 25 -5 0 -16 -31 -63 -45 -68 -8 -4 -23 -22 -32 -42
-9 -19 -20 -35 -25 -35 -4 0 -8 -7 -8 -15 0 -28 19 -15 40 25 23 46 63 71 82
52 20 -20 -3 -65 -45 -87 -37 -20 -53 -44 -19 -29 9 4 35 9 57 11 l40 4 -30
-26 c-16 -14 -46 -34 -65 -43 l-35 -17 48 -3 c39 -3 48 -6 45 -20 -2 -12 -19
-20 -58 -26 l-55 -9 45 -9 c44 -7 75 -32 64 -49 -3 -5 -29 -9 -59 -9 -30 0
-57 -4 -60 -10 -4 -6 10 -10 34 -10 32 0 46 -6 70 -32 17 -18 31 -39 31 -45 0
-19 -69 -17 -76 2 -7 17 -64 21 -64 5 0 -5 6 -10 13 -10 19 0 89 -37 99 -52
25 -40 -18 -52 -62 -18 -14 11 -29 20 -34 20 -5 0 -18 7 -28 17 -17 15 -18 15
-18 -1 0 -9 14 -25 31 -34 49 -28 57 -35 64 -68 5 -26 3 -32 -14 -37 -14 -3
-18 -11 -15 -24 3 -11 -2 -25 -10 -32 -14 -12 -22 -7 -56 30 -22 24 -40 39
-40 32 0 -19 22 -63 32 -63 4 0 8 -16 8 -35 0 -28 -4 -35 -20 -35 -11 0 -20
-5 -20 -11 0 -6 -12 -9 -27 -7 -24 3 -28 7 -25 30 1 14 -2 29 -8 33 -6 4 -10
-12 -10 -43 0 -47 -2 -51 -31 -61 -17 -6 -35 -8 -40 -5 -5 3 -9 0 -9 -6 0 -6
12 -11 28 -10 56 4 64 1 60 -22 -2 -14 -10 -23 -20 -23 -32 0 -58 -32 -58 -72
0 -41 -14 -72 -27 -59 -8 8 -9 12 -12 49 -2 21 -3 21 -11 2 -11 -25 -11 -112
0 -145 7 -21 8 -19 9 17 1 32 5 43 21 48 11 3 20 11 20 16 0 5 5 9 10 9 6 0
10 -7 10 -15 0 -21 18 -19 32 5 15 23 28 26 28 6 0 -21 20 -30 33 -17 18 18
25 13 37 -25 17 -50 45 -42 64 18 7 23 36 12 36 -12 0 -28 18 -33 32 -10 24
38 31 20 26 -65 -3 -47 -2 -85 2 -85 10 0 21 168 13 228 -4 41 -3 52 8 52 8 0
20 9 27 20 16 26 30 25 35 -2 2 -13 3 -8 1 10 -3 32 16 45 31 22 4 -6 15 -8
24 -5 16 5 20 -6 32 -82 17 -113 17 -252 1 -328 -17 -82 -54 -175 -69 -175
-15 0 -15 12 -3 145 8 87 3 341 -6 332 -2 -2 -8 -28 -14 -58 -13 -68 -59 -167
-81 -174 -15 -5 -33 -54 -23 -64 6 -7 44 31 44 44 0 6 8 20 18 31 10 11 22 32
26 47 3 15 11 27 16 27 15 0 11 -169 -6 -280 -8 -52 -14 -134 -13 -182 l0 -88
-175 0 c-161 0 -176 2 -176 18 0 9 -7 26 -15 36 -8 11 -15 27 -15 37 0 9 -7
22 -15 29 -22 19 -18 30 15 41 22 8 30 17 30 35 0 13 4 24 9 24 5 0 7 9 4 21
-4 12 0 25 8 30 12 8 11 11 -3 20 -10 6 -18 22 -18 37 0 16 -5 33 -11 39 -6 6
-12 42 -13 80 -2 61 -17 113 -32 113 -3 0 -4 -30 -2 -67 1 -38 -1 -70 -6 -73
-10 -6 -44 93 -45 132 -1 15 -6 30 -11 33 -17 11 1 -106 22 -144 14 -25 16
-37 8 -45 -17 -16 -50 28 -51 68 0 17 -4 40 -9 51 -7 16 -9 13 -9 -17 -1 -50
15 -88 47 -115 34 -28 42 -28 42 -2 0 35 24 15 42 -35 15 -40 16 -52 6 -86 -7
-22 -15 -40 -18 -40 -3 0 -21 -14 -40 -30 -30 -26 -37 -28 -46 -15 -6 8 -17
15 -25 15 -7 0 -30 12 -51 26 -29 20 -38 33 -38 55 0 16 -4 29 -8 29 -5 0 -6
-28 -4 -62 4 -57 3 -61 -11 -49 -15 11 -18 10 -27 -13 -10 -27 -35 -35 -43
-13 -3 8 -11 3 -25 -13 -23 -27 -24 -26 -23 40 2 81 11 119 27 113 8 -3 14 1
14 11 0 19 -9 20 -32 2 -12 -8 -18 -27 -18 -50 0 -21 -4 -35 -9 -32 -5 3 -21
-4 -35 -15 -15 -12 -43 -25 -63 -29 -31 -7 -36 -6 -41 12 -3 14 -11 19 -28 15
-20 -4 -23 -1 -19 22 13 77 24 120 39 153 20 46 20 74 2 81 -15 6 -26 -22 -31
-79 -2 -17 -11 -47 -21 -65 -25 -46 -31 -139 -9 -139 21 0 19 -33 -4 -54 -10
-9 -17 -25 -14 -35 2 -9 -3 -23 -11 -30 -9 -8 -16 -22 -16 -32 0 -18 -10 -19
-175 -19 l-175 0 0 75 c0 60 3 75 15 75 19 0 19 4 0 68 -9 28 -20 95 -25 149
-12 126 -12 143 0 143 6 0 10 -9 10 -19 0 -11 4 -22 9 -25 4 -3 11 -20 15 -38
8 -39 33 -68 59 -68 19 0 19 5 12 141 -5 102 -4 140 4 135 6 -4 11 -15 11 -24
0 -12 3 -13 12 -4 16 16 28 15 28 -1 0 -8 11 -24 25 -37 19 -18 28 -21 37 -12
8 8 15 8 24 1 9 -7 18 -2 33 20 28 38 27 62 0 27 -29 -37 -39 -23 -46 66 -6
80 6 108 48 108 17 0 19 -7 19 -60 0 -34 5 -66 10 -73 6 -7 17 -21 25 -32 15
-20 15 -20 36 8 25 32 45 35 52 6 3 -13 12 -19 24 -17 14 2 19 -5 24 -37 l6
-40 2 36 c0 20 4 72 7 115 4 43 3 76 -1 71 -5 -4 -10 -26 -13 -49 -3 -40 -14
-57 -36 -58 -5 0 -7 41 -4 90 3 73 1 90 -10 90 -11 0 -13 8 -8 35 8 41 -18 95
-45 95 -28 0 -49 11 -49 26 0 8 4 14 8 14 11 0 35 51 27 58 -3 3 -16 -5 -30
-18 -21 -19 -25 -21 -25 -7 0 25 -76 23 -117 -3 -32 -19 -33 -19 -33 -1 0 55
39 101 85 101 8 0 15 5 15 11 0 11 -29 5 -72 -17 -30 -16 -68 -19 -68 -5 0 20
43 60 80 75 22 9 40 20 40 26 0 14 -22 12 -44 -5 -19 -14 -61 -11 -79 5 -13
12 23 60 52 72 l26 10 -32 14 c-18 8 -33 17 -33 22 1 24 45 52 84 52 41 0 30
19 -19 31 -24 6 -50 17 -56 25 -18 22 -3 44 33 45 32 1 32 1 -9 10 -44 11 -60
31 -38 49 9 8 12 22 8 41 -5 25 -2 29 16 29 12 0 30 -5 41 -12 28 -18 37 -2
13 25 -25 27 -46 67 -40 74 7 7 60 -22 78 -43 30 -35 89 -160 89 -188 0 -21
20 -106 31 -131 25 -58 -24 270 -49 335 -13 30 -45 73 -94 122 -51 51 -145 79
-250 73 -82 -4 -118 -16 -118 -40 0 -8 -5 -15 -11 -15 -7 0 -9 -10 -7 -24 5
-23 3 -24 -72 -25 -83 -2 -134 11 -127 32 2 6 20 15 40 18 50 8 58 19 15 19
-20 0 -46 -8 -59 -19 -23 -19 -24 -19 -5 -40 11 -12 25 -21 33 -21 21 0 15
-19 -14 -44 -39 -33 -26 -56 32 -56 51 0 57 -10 18 -27 -16 -7 -41 -24 -58
-37 -25 -20 -27 -26 -17 -39 8 -9 27 -19 43 -22 l30 -7 -36 -39 c-50 -55 -46
-94 9 -105 l33 -6 -13 -36 c-7 -21 -13 -46 -13 -57 1 -15 3 -14 9 6 17 58 86
121 158 143 27 9 30 -9 6 -35 -15 -17 -14 -19 10 -25 38 -9 32 -31 -16 -55
-24 -12 -46 -27 -51 -34 -4 -8 -29 -27 -56 -44 l-50 -30 -10 27 -10 27 2 -30
c2 -28 5 -30 39 -29 36 1 37 0 31 -30 -3 -17 -10 -39 -15 -49 -15 -29 -48
-219 -41 -231 4 -6 13 19 20 54 8 36 16 77 20 93 6 30 23 47 23 23 0 -21 19
-20 49 0 l23 17 -5 -44 c-31 -272 -36 -357 -37 -561 0 -112 -3 -138 -14 -138
-22 0 -52 61 -65 132 -6 35 -12 139 -12 229 -1 121 -4 150 -9 109 -17 -118 -5
-342 21 -427 14 -43 56 -78 76 -62 17 15 17 16 31 -57 20 -101 28 -94 -107
-94 l-120 0 -3 -52 -3 -53 -70 0 c-65 0 -70 2 -73 23 -3 20 -22 33 -22 15 0
-5 -20 -21 -44 -38 -50 -34 -68 -58 -60 -79 3 -8 28 -33 55 -56 27 -23 47 -46
44 -51 -4 -5 -73 -9 -155 -9 l-148 0 -20 33 c-11 17 -27 59 -37 92 -9 33 -21
65 -25 70 -5 6 -13 39 -20 75 -6 36 -13 73 -16 83 -5 15 2 17 49 17 32 0 58 5
64 13 11 14 18 465 8 520 l-7 37 -59 0 c-50 0 -59 3 -59 18 0 33 29 158 54
235 14 43 26 83 26 88 0 6 9 22 20 36 11 14 20 33 20 41 0 21 91 198 130 254
17 23 47 68 67 98 21 30 41 57 45 58 5 2 8 10 8 18 0 9 5 12 10 9 6 -3 10 -2
10 3 0 9 206 222 215 222 5 0 72 47 135 95 44 33 212 121 278 145 17 7 32 19
32 26 0 9 11 14 28 14 16 0 55 9 88 21 105 37 206 58 364 77 198 25 200 25
355 7z m-751 -426 c23 -6 56 -22 72 -36 16 -13 34 -28 39 -31 20 -14 76 -93
86 -122 18 -51 5 -53 -31 -5 -31 41 -92 85 -119 85 -5 0 -11 -10 -15 -23 -5
-20 -11 -23 -38 -19 -32 4 -98 56 -98 76 0 11 75 46 98 46 7 0 10 5 7 10 -3 6
-32 10 -63 10 -42 0 -53 -3 -42 -10 13 -9 13 -12 -4 -25 -12 -9 -17 -21 -13
-35 5 -21 3 -21 -46 -15 -57 8 -92 31 -78 54 5 7 35 17 67 21 l59 7 -47 2
c-26 0 -50 6 -53 11 -8 14 164 13 219 -1z m1332 -23 c1 0 5 -15 8 -33 6 -25 3
-36 -15 -54 -17 -17 -19 -23 -8 -30 8 -5 22 -9 32 -9 32 0 14 -32 -38 -66 -21
-13 -25 -12 -53 14 -24 22 -28 32 -20 46 12 22 3 46 -17 46 -22 0 -19 12 16
59 27 39 33 42 62 36 18 -4 33 -8 33 -9z m369 -202 c20 -8 48 -61 41 -79 -4
-11 -26 -12 -103 -8 -54 3 -100 7 -102 9 -2 2 2 10 8 18 10 12 9 20 -4 40
l-17 26 80 0 c44 0 88 -3 97 -6z m-1945 -78 c0 -7 -7 -19 -15 -26 -14 -12 -13
-15 5 -35 25 -26 25 -35 3 -35 -10 0 -49 -12 -88 -25 -81 -29 -108 -31 -125
-10 -10 12 -7 21 15 47 32 39 60 55 135 79 69 22 70 22 70 5z m1869 -160 c31
-17 47 -43 58 -100 6 -28 5 -29 -22 -22 -16 4 -38 15 -51 25 -12 9 -40 23 -63
31 -42 13 -53 33 -26 44 8 3 15 16 15 30 0 22 3 24 28 17 16 -5 43 -16 61 -25z
m-1819 -62 c0 -3 -7 -12 -15 -20 -21 -21 -19 -35 5 -41 23 -6 26 -19 6 -30 -8
-4 -24 -26 -36 -48 -25 -44 -99 -117 -111 -110 -4 3 -10 23 -14 45 -6 33 -2
48 21 87 15 26 36 56 45 67 34 36 99 69 99 50z m218 -21 c2 -13 -6 -30 -20
-43 -55 -50 -65 -58 -99 -78 -20 -12 -41 -22 -48 -22 -36 0 24 143 67 157 12
5 39 8 60 8 30 0 38 -4 40 -22z m-197 -115 c-10 -41 -6 -48 22 -48 10 0 17 -3
15 -7 -21 -43 -48 -107 -48 -116 -1 -21 -37 -60 -48 -53 -6 4 -17 26 -23 49
-15 54 10 138 55 184 17 17 32 30 33 29 1 -1 -2 -18 -6 -38z m59 -129 c0 -24
4 -30 15 -25 8 3 22 9 30 12 35 14 1 -121 -42 -168 -24 -27 -32 -22 -54 27
-17 39 -18 51 -8 87 12 47 39 98 51 98 4 0 8 -14 8 -31z m-117 -129 c16 0 17
-11 10 -167 -14 -291 -9 -562 10 -605 22 -52 6 -55 -33 -7 -42 52 -46 73 -60
314 -10 154 -10 236 -1 358 6 88 14 164 18 170 4 7 13 -3 23 -25 9 -24 22 -38
33 -38z m1599 35 c6 -25 -14 -140 -27 -153 -2 -2 -15 4 -30 14 -39 25 -56 66
-49 114 6 35 9 39 29 34 13 -3 27 1 35 11 18 21 32 14 42 -20z m-1280 -42 c4
-67 -3 -138 -16 -150 -14 -14 -35 35 -36 80 0 58 -15 54 -24 -7 -8 -50 -39
-87 -58 -68 -16 16 -24 140 -9 155 8 8 11 8 11 -1 0 -16 33 -15 48 0 10 10 15
10 22 -2 8 -12 10 -9 10 12 0 23 20 47 41 48 4 0 9 -30 11 -67z m-262 -43 c0
-5 9 -19 21 -31 20 -20 22 -20 40 -3 18 16 19 16 25 -1 4 -10 2 -45 -4 -79
-20 -109 -24 -156 -23 -290 0 -120 12 -245 27 -292 3 -12 -8 -5 -28 18 -21 22
-40 59 -50 95 -23 79 -42 364 -31 472 4 47 7 94 5 104 -1 9 3 17 8 17 6 0 10
-4 10 -10z m1246 -70 c38 0 38 0 34 -98 -1 -35 -8 -75 -15 -89 l-13 -25 -16
25 c-9 13 -19 48 -23 76 -6 54 -19 57 -25 7 -4 -38 -25 -45 -34 -12 -8 34 -8
60 1 123 6 42 12 53 29 55 17 2 22 -3 24 -29 3 -30 6 -33 38 -33z m-2106 -278
c0 -142 -3 -262 -6 -265 -12 -12 -25 4 -14 18 7 8 9 93 8 251 l-3 239 -475 0
-475 0 0 -253 c0 -138 -3 -252 -7 -252 -5 0 -8 117 -8 260 l0 260 490 0 490 0
0 -258z m1007 220 c21 17 27 2 13 -31 -7 -18 -10 -50 -6 -78 20 -173 27 -256
21 -261 -26 -26 -80 132 -84 249 -2 70 15 137 32 120 7 -7 14 -7 24 1z m3249
-469 c-4 -10 -108 -13 -495 -13 -470 0 -523 3 -496 28 4 4 10 1 12 -5 4 -10
110 -13 484 -13 l479 0 1 33 c1 17 3 118 4 222 5 263 9 260 12 -10 2 -126 1
-235 -1 -242z m-847 -135 c-25 -134 -117 -388 -169 -468 -6 -8 -16 -26 -22
-40 -68 -141 -311 -413 -481 -539 -45 -34 -88 -66 -95 -72 -8 -7 -35 -23 -60
-36 -25 -13 -57 -33 -70 -44 -14 -10 -29 -19 -35 -19 -5 0 -37 -13 -71 -29
-113 -55 -219 -92 -335 -117 -64 -14 -136 -30 -161 -36 -59 -14 -439 -15 -510
-1 -185 36 -305 65 -342 81 -24 11 -61 25 -82 32 -59 19 -168 73 -255 125 -40
24 -204 143 -244 176 -74 63 -247 243 -247 257 0 6 -14 22 -30 35 -16 14 -30
28 -30 31 0 4 -18 33 -40 65 -22 32 -40 63 -40 68 0 6 -7 17 -17 24 -9 8 -22
29 -30 48 -8 18 -24 50 -37 70 -12 20 -30 59 -40 86 -11 28 -23 56 -29 62 -5
7 -18 45 -29 85 -12 40 -29 102 -39 138 -20 73 -23 110 -10 110 11 0 22 -32
51 -155 12 -49 26 -94 30 -100 4 -5 13 -28 20 -50 16 -51 88 -205 105 -225 7
-8 25 -38 40 -67 14 -28 33 -57 41 -64 8 -6 14 -17 14 -24 0 -7 7 -19 16 -26
9 -8 27 -30 39 -49 12 -19 70 -86 129 -148 92 -99 132 -134 256 -230 50 -39
160 -112 169 -112 4 0 20 -9 35 -21 14 -11 54 -32 88 -45 35 -14 77 -31 93
-39 43 -20 210 -71 272 -84 98 -20 297 -41 388 -41 158 0 429 38 500 70 22 10
60 23 85 30 25 6 73 25 108 41 35 16 69 29 75 29 7 0 24 8 37 18 14 9 46 28
72 42 25 14 75 45 110 69 35 25 77 54 93 65 89 62 243 218 387 395 10 11 30
44 44 71 14 28 29 52 33 54 23 15 126 252 152 351 11 39 23 79 28 90 6 11 15
47 21 80 14 77 18 87 28 81 5 -3 1 -47 -9 -98z m-4149 -58 c12 -74 27 -146 32
-160 6 -14 23 -68 38 -120 31 -105 76 -216 109 -270 11 -19 21 -42 21 -51 0
-9 8 -23 17 -30 9 -8 29 -41 45 -74 37 -79 78 -148 104 -177 11 -13 33 -43 50
-68 16 -25 34 -50 39 -57 6 -6 21 -26 35 -43 14 -16 37 -44 53 -62 15 -17 27
-35 27 -40 0 -17 -25 -2 -37 22 -6 12 -21 32 -32 44 -12 11 -46 55 -76 96 -30
41 -64 86 -75 98 -11 13 -20 29 -20 35 0 6 -8 19 -17 29 -30 32 -183 322 -183
345 0 4 -8 24 -18 43 -10 19 -29 71 -41 115 -13 44 -27 85 -32 90 -4 6 -17 56
-28 112 -12 56 -25 113 -31 127 -14 37 -24 153 -12 141 5 -5 20 -71 32 -145z
m2483 85 c4 -8 24 -23 47 -35 25 -13 45 -31 50 -48 6 -15 17 -39 25 -54 8 -14
15 -34 15 -44 0 -9 7 -25 16 -35 14 -15 12 -18 -17 -28 -18 -6 -42 -11 -54
-11 -24 0 -55 -37 -55 -66 0 -12 3 -14 13 -6 16 14 83 26 97 17 7 -4 -4 -22
-30 -48 -40 -42 -50 -79 -34 -121 9 -22 24 -20 24 4 0 10 7 23 16 28 8 5 21
19 27 32 7 13 18 25 25 28 9 3 12 -22 12 -102 l0 -106 -81 0 c-74 0 -80 2 -73
18 13 30 10 175 -4 205 -18 36 -31 175 -17 180 6 3 2 28 -12 70 -26 76 -30
137 -9 137 8 0 16 -7 19 -15z m-183 2 c0 -48 -25 -173 -37 -185 -14 -14 -14
-17 1 -27 9 -7 16 -17 16 -24 0 -14 -27 -15 -35 -1 -3 5 -38 9 -78 7 -63 -2
-72 0 -75 17 -2 10 3 23 12 28 9 5 16 19 16 32 0 13 6 29 14 36 8 6 16 24 18
38 2 22 8 27 31 27 15 -1 27 3 27 7 0 4 8 8 18 8 9 0 23 9 30 20 10 16 42 29
42 17z m-740 -222 c0 -69 -3 -85 -15 -85 -13 0 -15 -23 -15 -145 l0 -145 -180
0 -180 0 0 144 0 145 -37 3 c-33 3 -38 7 -41 31 l-3 27 125 0 126 0 0 55 0 55
110 0 110 0 0 -85z m890 0 c0 -23 4 -45 10 -51 14 -14 25 -104 13 -104 -6 0
-22 18 -37 39 -23 32 -26 43 -17 60 14 25 14 81 1 81 -5 0 -10 -13 -10 -30 0
-37 -20 -82 -34 -77 -6 2 -16 22 -21 44 -15 63 -26 64 -19 2 6 -51 4 -57 -24
-87 -42 -44 -68 -41 -43 6 5 9 15 45 22 80 13 67 41 102 65 81 16 -13 49 3 59
28 6 16 8 15 20 -7 8 -14 14 -43 15 -65z m940 5 l0 -49 123 -3 c117 -3 122 -4
125 -25 2 -16 -3 -22 -20 -25 -23 -3 -23 -5 -26 -141 l-3 -137 -207 2 -207 3
-3 213 -2 212 110 0 110 0 0 -50z m-1137 -86 c-1 -16 -3 -85 -5 -154 l-3 -125
24 3 c13 1 30 10 37 20 12 16 14 16 34 -5 11 -13 25 -23 30 -23 15 0 40 31 40
51 0 29 20 23 31 -10 6 -16 18 -33 27 -38 21 -10 -239 -20 -346 -13 l-77 5 -3
95 c-2 52 0 110 3 129 l6 34 22 -31 c12 -17 30 -33 40 -36 9 -2 17 -13 17 -24
0 -11 7 -23 16 -26 10 -4 13 -13 9 -26 -4 -14 -2 -20 9 -20 33 0 47 82 19 111
-10 10 -29 32 -43 49 -13 16 -30 30 -37 30 -7 0 -13 4 -13 9 0 17 20 23 35 11
11 -9 19 -9 28 -2 11 10 71 21 92 17 6 -1 9 -15 8 -31z m-1105 -23 c1 -1 2
-62 2 -136 l0 -135 -117 0 c-94 0 -120 3 -135 17 -10 9 -18 22 -18 29 0 7 -4
14 -9 16 -4 2 -32 48 -61 103 l-52 100 38 6 c29 5 334 4 352 0z m624 -21 c-5
-49 7 -54 41 -17 24 26 44 38 75 43 l43 7 -7 -29 c-3 -16 -14 -36 -24 -45 -28
-24 -36 -84 -15 -115 20 -32 41 -26 37 10 -2 15 2 34 9 43 16 19 35 50 49 83
11 24 27 40 43 40 4 0 7 -61 7 -135 l0 -135 -240 0 -240 0 0 134 c0 98 3 136
13 140 6 2 57 4 112 3 100 -2 100 -2 97 -27z m658 -8 c14 -16 32 -31 39 -33
10 -4 16 -30 19 -92 2 -48 1 -87 -3 -87 -4 0 -16 10 -27 22 -17 20 -23 36 -30
82 -2 11 -9 21 -16 24 -7 2 -11 -4 -10 -15 4 -28 -25 -113 -39 -113 -11 0 -19
20 -39 103 -10 43 -27 33 -20 -12 5 -33 2 -44 -17 -65 -29 -31 -37 -25 -37 26
0 53 23 103 68 149 45 48 77 50 112 11z m457 -1 c10 -10 28 -22 40 -25 12 -4
23 -17 25 -28 2 -12 9 -24 17 -26 11 -4 13 5 9 42 -6 54 -1 57 97 53 l60 -2 3
-127 3 -128 -231 0 -230 0 0 125 0 125 25 0 c16 0 25 -6 25 -15 0 -8 5 -15 10
-15 6 0 10 -9 10 -19 0 -11 12 -33 26 -50 17 -20 24 -39 21 -52 -9 -34 16 -16
36 25 18 38 18 38 -7 77 -14 21 -26 43 -26 49 0 18 68 11 87 -9z m1113 10 c0
-4 -18 -42 -40 -82 -22 -41 -51 -95 -65 -121 l-25 -48 -125 0 -124 0 -3 120
c-2 66 -1 125 0 130 5 12 382 14 382 1z m-2630 -426 l0 -145 -99 0 -100 0 -18
30 c-9 17 -25 33 -35 36 -10 3 -18 8 -18 12 0 6 -46 61 -100 117 -10 11 -30
37 -44 58 l-25 37 219 0 220 0 0 -145z m460 0 l0 -145 -215 0 -215 0 0 145 0
145 215 0 215 0 0 -145z m540 0 l0 -145 -260 0 -260 0 0 145 0 145 260 0 260
0 0 -145z m580 0 l0 -145 -275 0 -275 0 0 145 0 145 275 0 275 0 0 -145z m470
0 l0 -145 -220 0 -220 0 0 145 0 145 220 0 220 0 0 -145z m403 116 c-19 -31
-109 -132 -186 -212 l-48 -49 -74 0 -75 0 0 145 0 145 201 0 201 0 -19 -29z
m-2235 -400 c1 -63 0 -121 -2 -128 -7 -16 -67 9 -107 44 -14 13 -29 23 -35 23
-5 0 -20 9 -34 20 -14 10 -50 39 -80 62 -30 24 -68 51 -83 61 -15 10 -25 22
-22 28 4 6 76 8 183 7 l177 -3 3 -114z m440 -43 l3 -158 -166 0 c-172 0 -235
12 -254 49 -9 17 -13 249 -5 263 3 5 98 7 212 6 l207 -3 3 -157z m627 2 l0
-155 -302 -3 c-239 -2 -303 0 -304 10 -4 49 -5 285 -1 296 3 10 70 12 306 10
l301 -3 0 -155z m493 35 c1 -66 0 -130 -3 -141 -10 -43 -67 -54 -275 -54
l-190 0 0 160 0 160 233 -2 232 -3 3 -120z m412 115 c0 -5 -10 -15 -22 -21
-13 -6 -43 -28 -67 -47 -91 -73 -264 -182 -291 -182 -11 0 -15 242 -3 253 10
11 383 8 383 -3z m-3015 -346 c95 -107 239 -236 250 -226 5 4 6 2 3 -3 -4 -6
11 -23 33 -39 21 -16 38 -31 36 -32 -1 -1 -38 2 -82 6 -44 5 -137 9 -207 9
-70 1 -128 4 -131 9 -2 4 2 68 9 142 7 74 13 147 13 163 1 40 20 33 76 -29z
m3759 40 c3 -9 6 -25 6 -35 0 -11 4 -17 10 -14 6 3 7 -1 4 -10 -4 -8 -1 -67 6
-131 6 -64 9 -119 5 -122 -4 -4 -70 -10 -148 -13 -78 -3 -172 -8 -210 -11
l-67 -5 37 31 c77 63 162 150 156 159 -4 6 -1 7 6 2 15 -9 63 33 54 48 -3 6
-1 7 4 4 6 -4 17 3 26 16 17 26 89 97 98 97 4 0 10 -7 13 -16z m-1934 -81 l0
-56 -117 7 c-186 11 -395 57 -401 89 -3 16 14 17 257 17 l261 0 0 -57z m578
45 c-3 -7 -43 -23 -90 -34 -47 -12 -90 -24 -96 -28 -17 -10 -230 -36 -299 -36
l-63 0 0 55 0 55 276 0 c216 0 275 -3 272 -12z m-2533 -46 c-3 -15 -9 -72 -14
-126 -5 -65 -13 -101 -22 -107 -8 -5 -55 -9 -106 -9 -111 0 -111 0 -115 121
l-3 84 73 1 c52 2 80 7 100 20 77 52 96 56 87 16z m3988 16 c12 -7 24 -15 27
-18 17 -18 70 -30 130 -30 l70 0 0 -45 c0 -57 -19 -148 -34 -157 -13 -9 -151
-10 -182 -2 -18 5 -22 18 -32 97 -6 51 -14 109 -18 130 -7 40 1 46 39 25z
m-4295 -135 c5 -10 12 -42 15 -70 l6 -53 -56 0 c-78 0 -180 19 -194 36 -10 12
-8 17 7 29 36 26 103 56 146 64 63 13 66 13 76 -6z m4724 -20 c73 -33 88 -49
62 -68 -19 -13 -42 -18 -171 -31 l-63 -6 0 49 c0 26 3 59 7 72 6 22 9 23 57
16 28 -3 77 -18 108 -32z m-5082 -43 c39 -38 113 -67 232 -92 29 -6 217 -14
418 -19 201 -4 394 -12 430 -18 153 -24 177 -29 219 -45 24 -9 54 -16 67 -16
12 0 26 -4 29 -10 3 -5 16 -10 28 -10 36 0 211 -78 412 -184 22 -12 56 -33 76
-48 20 -16 39 -28 43 -28 4 0 19 -12 34 -26 15 -14 44 -32 65 -41 20 -8 37
-19 37 -24 0 -5 7 -9 15 -9 8 0 15 -4 15 -10 0 -5 8 -10 17 -10 21 0 77 -18
128 -41 52 -23 100 -28 325 -35 198 -7 316 4 405 36 28 10 70 24 95 31 58 17
149 62 177 88 12 12 25 21 29 21 4 0 33 18 65 40 32 22 63 40 69 40 5 0 10 4
10 9 0 5 10 13 23 17 12 4 56 26 97 48 41 23 91 48 110 55 65 24 85 33 122 52
20 10 48 19 62 19 14 0 28 5 31 10 3 6 15 10 25 10 11 0 59 11 107 26 49 14
144 32 213 40 69 8 161 20 206 26 61 8 110 8 198 -2 94 -10 147 -10 259 0 263
22 320 40 422 133 20 18 20 17 23 -185 2 -112 0 -218 -3 -237 -5 -24 -23 -51
-61 -88 -31 -29 -61 -53 -68 -53 -7 0 -24 -8 -37 -18 -13 -11 -35 -22 -49 -26
-64 -19 -339 -35 -597 -36 -273 0 -287 -1 -435 -30 -161 -32 -257 -70 -333
-130 -21 -16 -41 -30 -45 -30 -4 0 -20 -11 -36 -25 -16 -14 -35 -25 -41 -25
-7 0 -13 -4 -13 -10 0 -5 -6 -10 -13 -10 -8 0 -22 -9 -32 -20 -9 -10 -34 -25
-54 -31 -20 -6 -47 -19 -61 -29 -29 -19 -116 -60 -129 -60 -4 0 -28 -11 -52
-24 -24 -13 -55 -27 -69 -31 -14 -4 -47 -15 -75 -25 -27 -10 -95 -28 -150 -40
-55 -12 -109 -25 -121 -30 -11 -4 -86 -14 -166 -21 -160 -14 -257 -6 -393 32
-38 11 -88 24 -110 30 -22 6 -58 19 -80 29 -87 39 -260 125 -265 132 -3 3 -30
17 -61 31 -31 14 -60 30 -63 36 -4 6 -27 20 -51 31 -24 11 -46 24 -50 29 -3 5
-31 22 -63 37 -31 15 -66 35 -77 44 -11 10 -32 20 -47 24 -15 3 -33 12 -40 19
-7 7 -33 18 -58 25 -25 7 -54 17 -65 22 -60 27 -235 42 -575 51 -440 10 -514
18 -620 66 -127 58 -150 135 -142 477 l2 119 27 -24 c15 -13 30 -26 33 -29z
m2210 -547 c0 -5 10 -9 23 -9 12 -1 49 -7 82 -13 162 -30 611 -22 710 14 54
19 86 19 79 0 -4 -8 -9 -13 -13 -10 -4 2 -26 -3 -50 -11 -23 -8 -95 -25 -159
-39 -204 -43 -441 -28 -649 41 -57 19 -77 34 -45 34 12 0 22 -3 22 -7z"/>
<path d="M3239 4320 c-3 -8 -16 -15 -30 -15 -22 0 -25 -6 -32 -60 -5 -33 -12
-67 -17 -76 -4 -9 -11 -42 -14 -75 -4 -32 -13 -97 -21 -144 -8 -47 -19 -114
-24 -149 -6 -36 -14 -67 -18 -70 -5 -3 -14 -19 -22 -36 -10 -23 -14 -26 -21
-15 -11 23 -19 110 -9 115 11 7 -1 37 -20 52 -14 11 -14 13 5 19 20 5 21 12
19 80 -1 53 -7 79 -19 93 -9 10 -18 37 -20 61 -3 30 -10 48 -26 60 -14 10 -19
20 -12 24 29 18 -14 65 -60 66 -15 0 -30 5 -33 10 -3 6 -17 10 -31 10 -17 0
-24 5 -24 20 0 26 -8 25 -32 -5 -11 -14 -28 -25 -39 -25 -31 0 -59 -18 -131
-86 -36 -34 -76 -65 -87 -69 -24 -7 -61 -64 -61 -93 0 -11 6 -32 14 -47 14
-26 14 -26 21 -5 11 33 62 51 115 39 87 -20 108 -70 65 -159 -34 -71 -55 -107
-83 -147 -30 -43 -72 -45 -98 -5 -10 15 -23 33 -30 40 -7 7 -20 36 -28 65 -8
29 -19 68 -25 87 -8 30 -9 27 -4 -20 8 -70 27 -125 59 -167 28 -37 76 -66 90
-54 5 5 21 11 35 15 23 5 28 2 33 -19 8 -33 16 -32 62 12 39 36 39 36 42 12 5
-34 17 -43 35 -25 8 9 22 14 29 11 20 -8 75 45 84 80 4 17 12 36 18 44 8 10 6
13 -9 10 -13 -3 -21 -14 -23 -30 -2 -15 -16 -39 -33 -55 l-29 -28 0 47 c0 26
-4 47 -10 47 -5 0 -10 -15 -10 -34 0 -44 -9 -66 -26 -66 -9 0 -14 12 -14 35 0
19 -4 35 -10 35 -5 0 -10 -4 -10 -9 0 -13 -50 -71 -60 -71 -4 0 -6 10 -3 21 5
18 3 20 -16 14 -17 -5 -21 -2 -21 14 0 12 5 21 10 21 6 0 22 24 37 54 28 57
71 91 102 81 14 -4 30 6 60 37 22 24 41 51 41 61 0 10 6 20 14 23 15 6 29 44
16 44 -17 0 -60 -54 -60 -75 0 -23 -29 -44 -31 -22 0 7 -5 -1 -11 -16 -9 -26
-11 -27 -23 -11 -12 17 -13 16 -26 -4 -21 -33 -42 -29 -34 8 9 43 -1 64 -45
95 -22 16 -43 38 -46 50 -3 12 -16 28 -30 35 -29 16 -30 26 -4 40 11 6 20 16
20 22 0 5 18 28 40 49 37 37 43 39 83 33 23 -4 48 -11 55 -17 8 -7 12 -5 12 7
0 11 -9 16 -27 16 -26 0 -27 1 -9 18 13 12 20 14 23 5 3 -8 14 -11 28 -7 12 3
26 1 29 -5 4 -6 18 -11 32 -11 14 0 24 -6 24 -14 0 -7 9 -16 20 -19 11 -3 20
-13 20 -22 0 -9 9 -28 20 -42 11 -14 20 -38 20 -52 0 -15 5 -32 12 -39 14 -14
13 -109 -2 -127 -7 -8 -9 -19 -5 -25 12 -19 16 -150 5 -150 -5 0 -13 18 -16
40 -8 46 -24 64 -24 26 0 -30 20 -76 32 -76 5 0 14 -14 20 -30 5 -17 19 -35
30 -41 17 -9 25 -7 44 12 18 19 28 53 49 164 14 77 27 154 30 170 2 17 8 50
14 75 6 25 11 73 11 107 0 34 5 65 10 68 6 3 10 1 10 -4 0 -6 7 -11 15 -11 18
0 37 44 33 74 -3 15 -5 17 -9 6z"/>
<path d="M3664 3242 c0 -143 -4 -186 -28 -295 -15 -71 -25 -134 -23 -140 3
-10 35 84 50 148 3 11 5 -4 6 -32 1 -64 16 -68 50 -15 25 40 41 126 39 212 -1
44 -2 47 -5 15 -11 -129 -33 -215 -54 -215 -3 0 -8 103 -12 229 -3 127 -9 236
-14 245 -4 8 -8 -58 -9 -152z"/>
<path d="M520 1003 c-7 -27 -31 -86 -52 -132 -21 -46 -38 -85 -38 -86 0 -9 46
-12 66 -5 21 8 23 12 13 29 -20 31 -4 51 41 51 45 0 61 -20 42 -50 -10 -16 -3
-18 81 -23 105 -6 124 -2 102 20 -23 22 -18 123 6 123 5 0 24 -24 43 -54 52
-82 77 -108 92 -95 7 5 15 51 19 109 5 70 11 100 21 104 9 3 14 -1 14 -14 0
-30 21 -35 42 -11 37 46 59 8 39 -69 -5 -19 -12 -52 -16 -72 -4 -25 -11 -38
-21 -38 -9 0 -14 -7 -12 -17 2 -13 17 -20 53 -25 56 -8 76 2 51 27 -20 20 -20
35 0 124 11 46 21 71 30 71 8 0 14 -4 14 -9 0 -15 31 -42 41 -36 5 4 9 21 9
40 0 33 0 33 -57 40 -32 3 -84 8 -117 10 -32 2 -63 8 -69 14 -14 14 -74 14
-83 0 -3 -6 -1 -15 5 -19 16 -9 25 -65 16 -98 l-6 -25 -24 25 c-12 13 -30 38
-39 54 -31 58 -63 84 -101 84 -38 0 -50 -24 -16 -35 11 -3 21 -11 24 -18 5
-14 -18 -175 -26 -183 -15 -15 -40 10 -63 63 -85 194 -101 210 -124 126z"/>
<path d="M4698 1021 c-51 -32 -58 -47 -60 -114 -1 -83 55 -134 136 -122 47 7
64 18 90 59 22 35 18 116 -9 145 -13 16 -94 61 -108 61 -2 0 -24 -13 -49 -29z
m70 -27 c54 -11 71 -107 28 -156 -48 -57 -96 -22 -96 70 0 52 13 92 29 92 5 0
22 -3 39 -6z"/>
<path d="M4983 1014 c-17 -12 -23 -27 -23 -53 0 -30 8 -43 52 -83 44 -40 50
-49 39 -62 -8 -9 -19 -16 -26 -16 -19 0 -55 35 -55 54 0 21 -16 21 -24 0 -22
-58 6 -84 89 -84 47 0 75 24 75 64 0 29 -40 86 -66 96 -30 12 -34 60 -5 60 21
0 37 -16 42 -43 7 -34 24 -22 30 20 5 39 4 42 -23 47 -72 15 -84 15 -105 0z"/>
<path d="M4355 995 c-29 -13 -29 -14 -8 -20 17 -6 23 -17 28 -51 3 -24 7 -64
10 -88 4 -26 2 -47 -5 -51 -5 -3 -10 -13 -10 -21 0 -17 61 -20 91 -4 23 13 25
30 4 30 -16 0 -16 1 -20 38 -3 32 12 27 54 -18 37 -40 63 -49 91 -29 11 8 12
12 3 16 -7 2 -29 21 -48 40 -25 25 -34 41 -29 52 4 9 9 35 12 57 4 39 2 42
-29 53 -43 15 -107 13 -144 -4z"/>
<path d="M1210 984 c0 -4 7 -12 16 -18 15 -11 14 -18 -1 -82 -28 -116 -35
-133 -51 -127 -8 3 -14 -1 -14 -9 0 -12 17 -18 167 -55 16 -4 29 2 43 18 34
41 23 64 -16 34 -40 -30 -94 -16 -94 25 0 49 8 60 38 49 14 -5 31 -17 37 -26
11 -15 14 -13 29 15 26 51 15 89 -17 57 -23 -22 -70 -3 -65 26 5 34 30 44 67
28 17 -8 34 -22 37 -32 7 -22 20 -14 26 17 6 28 -8 46 -34 46 -10 0 -26 4 -36
9 -48 24 -132 40 -132 25z"/>
<path d="M4200 969 c-19 -6 -52 -14 -73 -18 -50 -11 -54 -17 -30 -44 27 -30
55 -170 36 -183 -24 -17 0 -35 33 -24 16 5 56 16 89 23 59 14 60 15 63 50 4
45 -9 47 -38 7 -30 -42 -76 -43 -82 0 -3 16 0 34 6 40 13 13 46 13 46 0 0 -5
5 -10 10 -10 11 0 12 46 1 73 -6 17 -8 17 -31 -3 -33 -28 -55 -22 -55 15 0 27
3 30 38 33 21 2 37 -1 37 -7 0 -6 5 -11 11 -11 6 0 9 14 7 32 -3 37 -15 41
-68 27z"/>
<path d="M3965 900 c-3 -5 -17 -10 -31 -10 -13 0 -32 -4 -42 -9 -9 -6 -30 -12
-45 -16 -25 -5 -28 -10 -25 -38 4 -37 33 -50 43 -18 9 30 41 26 53 -6 25 -67
34 -107 28 -135 -6 -29 -5 -29 27 -22 17 3 43 11 57 16 l25 10 -22 9 c-16 6
-27 24 -39 66 -9 32 -23 70 -31 86 -12 24 -12 28 3 34 9 3 25 1 36 -6 25 -16
31 -10 22 23 -4 19 -13 26 -29 26 -13 0 -27 -4 -30 -10z"/>
<path d="M3680 801 c-8 -4 -28 -16 -45 -25 -16 -10 -38 -20 -47 -23 -10 -3
-18 -9 -18 -14 0 -5 8 -9 18 -9 23 0 86 -129 85 -174 -1 -30 1 -32 26 -28 14
3 38 13 53 23 14 11 32 19 40 19 28 1 48 27 48 64 0 42 -21 46 -30 5 -8 -32
-54 -58 -77 -43 -22 14 -29 54 -12 65 8 4 16 4 19 -1 3 -4 17 -6 32 -3 l27 5
-20 39 c-23 45 -34 49 -43 14 -9 -36 -51 -35 -60 1 -4 15 -2 32 5 40 14 17 69
19 69 2 0 -8 3 -9 10 -2 5 5 7 19 4 32 -5 17 -13 22 -38 21 -17 0 -38 -4 -46
-8z"/>
<path d="M1808 734 c-32 -17 -68 -76 -68 -110 0 -56 53 -114 105 -114 35 0 86
23 108 48 10 11 21 38 24 60 13 95 -83 161 -169 116z m116 -55 c12 -64 -39
-133 -96 -127 -30 3 -33 6 -36 40 -4 52 48 118 94 118 27 0 32 -4 38 -31z"/>
<path d="M3480 691 c0 -5 -10 -13 -22 -16 -64 -19 -75 -28 -87 -76 -16 -60 -3
-112 36 -145 39 -34 88 -41 129 -19 57 30 75 54 72 88 -4 40 -19 41 -33 2 -5
-16 -15 -36 -22 -42 -12 -14 -60 -17 -88 -7 -40 16 -60 119 -29 159 12 16 17
17 23 7 5 -8 17 -12 27 -11 11 2 25 0 32 -5 8 -5 18 -4 24 2 8 8 2 20 -18 41
-29 31 -44 39 -44 22z"/>
<path d="M2039 648 c0 -2 -2 -25 -3 -53 -3 -53 -21 -96 -56 -133 -23 -24 -21
-52 4 -52 8 0 22 -3 32 -7 14 -5 16 -2 11 16 -6 24 10 71 24 71 4 0 9 -23 11
-52 2 -28 8 -53 15 -55 6 -2 30 12 53 33 22 20 42 35 44 33 3 -2 2 -16 -1 -32
-4 -18 -13 -29 -29 -33 -34 -9 -30 -28 9 -42 49 -18 67 -15 67 9 0 65 51 168
83 169 7 0 3 7 -7 15 -34 26 -69 18 -112 -25 -60 -61 -74 -52 -74 45 0 48 -3
56 -29 74 -27 19 -40 25 -42 19z"/>
<path d="M2347 489 c12 -25 13 -38 5 -68 -6 -20 -14 -49 -17 -65 -4 -17 -14
-30 -26 -33 -11 -3 -18 -11 -16 -17 5 -14 62 -30 82 -22 14 5 15 8 1 27 -15
22 -8 62 19 102 11 16 13 16 13 -6 0 -28 61 -149 78 -154 10 -3 28 48 54 155
7 25 17 42 25 42 15 0 22 20 8 20 -5 0 -25 4 -46 9 l-38 9 7 -34 c7 -36 -1
-84 -14 -84 -8 0 -11 6 -54 94 -25 52 -29 56 -62 56 l-34 0 15 -31z"/>
<path d="M2608 464 c-4 -4 -3 -13 3 -20 15 -19 8 -176 -9 -182 -38 -12 10 -33
109 -46 49 -7 61 -1 74 43 7 22 5 23 -16 16 -79 -24 -106 -16 -95 31 8 30 32
31 56 2 l18 -23 12 44 c14 51 1 74 -26 47 -22 -23 -60 -17 -56 8 5 25 29 49
37 36 3 -5 15 -10 26 -10 10 0 19 -4 19 -10 0 -5 7 -10 15 -10 16 0 22 54 7
64 -14 8 -167 18 -174 10z"/>
<path d="M2890 460 c-32 -8 -55 -48 -46 -83 4 -19 19 -33 51 -48 59 -28 73
-45 53 -65 -12 -12 -19 -13 -41 -3 -15 7 -29 21 -33 32 -11 35 -27 2 -19 -42
6 -39 9 -41 42 -41 54 0 113 39 113 75 0 27 -27 65 -46 65 -8 0 -14 5 -14 10
0 6 -7 10 -15 10 -8 0 -15 5 -15 10 0 6 -7 10 -15 10 -8 0 -15 6 -15 14 0 16
47 10 70 -10 10 -9 20 -10 30 -3 13 7 13 10 1 18 -7 5 -11 13 -7 19 20 33 -25
48 -94 32z"/>
</g>
</svg>
